<svg xmlns="http://www.w3.org/2000/svg" xmlns:xlink="http://www.w3.org/1999/xlink" width="324" height="324" viewBox="0 0 324 324">
  <defs>
    <linearGradient id="linear-gradient" x1="0.5" x2="0.075" y2="1.019" gradientUnits="objectBoundingBox">
      <stop offset="0" stop-color="#52a252"/>
      <stop offset="1" stop-color="#0b600b"/>
    </linearGradient>
    <filter id="Rectangle_1" x="0" y="0" width="324" height="324" filterUnits="userSpaceOnUse">
      <feOffset dx="3" dy="3" input="SourceAlpha"/>
      <feGaussianBlur stdDeviation="3" result="blur"/>
      <feFlood flood-opacity="0.161"/>
      <feComposite operator="in" in2="blur"/>
      <feComposite in="SourceGraphic"/>
    </filter>
  </defs>
  <g id="Group_1" data-name="Group 1" transform="translate(-1049 -245)">
    <g transform="matrix(1, 0, 0, 1, 1049, 245)" filter="url(#Rectangle_1)">
      <rect id="Rectangle_1-2" data-name="Rectangle 1" width="306" height="306" rx="57" transform="translate(6 6)" fill="url(#linear-gradient)"/>
    </g>
    <g id="_3643767-key-keys-main-password-privilege" data-name="3643767-key-keys-main-password-privilege" transform="translate(1176.315 531.752) rotate(-135)">
      <path id="Path_1" data-name="Path 1" d="M67.871,0a7.541,7.541,0,0,0-4.524,1.508L33.184,24.13a7.541,7.541,0,0,0-3.016,6.032v71.862a67.865,67.865,0,1,0,75.406,0V90.487a7.541,7.541,0,0,0-2.187-5.354l-9.8-9.727,9.8-9.727a7.541,7.541,0,0,0,0-10.708l-9.8-9.727,9.8-9.727a7.55,7.55,0,0,0-.829-11.386L72.4,1.508A7.541,7.541,0,0,0,67.871,0ZM45.249,33.933,67.871,16.966l18.7,14.026L77.6,39.89a7.541,7.541,0,0,0,0,10.708l9.8,9.727-9.8,9.727a7.541,7.541,0,0,0,0,10.708L90.493,93.579v12.593a7.541,7.541,0,0,0,3.77,6.485,52.784,52.784,0,1,1-52.784,0,7.541,7.541,0,0,0,3.77-6.485ZM98.033,90.487Z" transform="translate(0 0)" fill="#fff"/>
      <circle id="Ellipse_1" data-name="Ellipse 1" cx="7.541" cy="7.541" r="7.541" transform="translate(60.33 165.893)" fill="#fff"/>
      <path id="Path_2" data-name="Path 2" d="M15.081,0A15.081,15.081,0,1,0,30.162,15.081,15.081,15.081,0,0,0,15.081,0ZM15.081,15.081Z" transform="translate(52.79 158.353)" fill="#fff"/>
    </g>
  </g>
</svg>
